<svg xmlns="http://www.w3.org/2000/svg" viewBox="0 0 200 200">
  <defs>
    <linearGradient id="gradient" x1="0%" y1="0%" x2="0%" y2="100%">
      <stop offset="0%" style="stop-color:#e6f7f0"/>
      <stop offset="100%" style="stop-color:#c8e6d8"/>
    </linearGradient>
  </defs>
  <g transform="translate(50, 20)">
    <path d="M50,0 C77.6,0 100,22.4 100,50 C100,77.6 77.6,100 50,100 C22.4,100 0,77.6 0,50 C0,22.4 22.4,0 50,0" fill="url(#gradient)"/>
    <path d="M30,30 C40,20 60,20 70,30 C80,40 80,60 70,70 C60,80 40,80 30,70 C20,60 20,40 30,30" fill="#4ade80"/>
    <path d="M50,20 C60,30 60,50 50,60 C40,70 20,70 10,60 C0,50 0,30 10,20 C20,10 40,10 50,20" fill="#22c55e"/>
    <path d="M90,20 C100,30 100,50 90,60 C80,70 60,70 50,60 C40,50 40,30 50,20 C60,10 80,10 90,20" fill="#16a34a"/>
  </g>
</svg>